# xmcd
#
# Track frame offsets: 
#        150
#        16095
#        35405
#        54250
#        71770
#        87105
#
# Disc length: 1386 seconds
#
# Revision: 0
# Processed by: cddbd v1.5.2PL0 Copyright (c) Steve Scherf et al.
# Submitted via: ExactAudioCopy v0.99pb5
#
DISCID=3f056806
DTITLE=Various Artist - Craig Electronics Collection
DYEAR=1900
DGENRE=R&B
TTITLE0=This Is It Melba Moore
TTITLE1=Loverboy Billy Ocean
TTITLE2=You Are My Starship Norman Connors
TTITLE3=Jump To It Aretha Franklin
TTITLE4=Slow Hand Pointer Sisters
TTITLE5=Best Thing That Ever Happened To Me Gladys Knight and the Pips
EXTD=
EXTT0=
EXTT1=
EXTT2=
EXTT3=
EXTT4=
EXTT5=
PLAYORDER=
